<svg width="48" height="48" viewBox="0 0 48 48" xmlns="http://www.w3.org/2000/svg" xmlns:xlink="http://www.w3.org/1999/xlink" overflow="hidden"><g id="Icon-Resource/Compute/Res_Amazon-EC2_AMI_48" fill="none" fill-rule="evenodd"><path d="M30.143 37.727 38.599 37.727 38.599 26.656 30.143 26.656 30.143 37.727ZM9.229 37.727 17.686 37.727 17.686 26.656 9.229 26.656 9.229 37.727ZM19.686 37.727 28.143 37.727 28.143 26.656 19.686 26.656 19.686 37.727ZM39.599 24.656 8.229 24.656C7.676 24.656 7.229 25.104 7.229 25.656L7.229 38.727C7.229 39.279 7.676 39.727 8.229 39.727L39.599 39.727C40.151 39.727 40.599 39.279 40.599 38.727L40.599 25.656C40.599 25.104 40.151 24.656 39.599 24.656L39.599 24.656ZM30.143 19.428 38.599 19.428 38.599 10.971 30.143 10.971 30.143 19.428ZM9.229 19.428 17.686 19.428 17.686 10.971 9.229 10.971 9.229 19.428ZM19.686 19.428 28.143 19.428 28.143 10.971 19.686 10.971 19.686 19.428ZM39.599 8.971 8.229 8.971C7.676 8.971 7.229 9.419 7.229 9.971L7.229 20.428C7.229 20.98 7.676 21.428 8.229 21.428L39.599 21.428C40.151 21.428 40.599 20.98 40.599 20.428L40.599 9.971C40.599 9.419 40.151 8.971 39.599 8.971L39.599 8.971ZM43.827 39.379C43.827 41.832 41.832 43.827 39.38 43.827L8.448 43.827C5.995 43.827 4 41.832 4 39.379L4 8.448C4 5.995 5.995 4 8.448 4L39.38 4C41.832 4 43.827 5.995 43.827 8.448L43.827 39.379ZM39.38 2 8.448 2C4.893 2 2 4.892 2 8.448L2 39.379C2 42.934 4.893 45.827 8.448 45.827L39.38 45.827C42.935 45.827 45.827 42.934 45.827 39.379L45.827 8.448C45.827 4.892 42.935 2 39.38 2L39.38 2Z" id="Amazon-Containers-AMI_Resource-Icon_light-bg" fill="#ED7100"/></g></svg>