<svg width="82" height="81" xmlns="http://www.w3.org/2000/svg" xmlns:xlink="http://www.w3.org/1999/xlink" overflow="hidden"><g transform="translate(-790 -124)"><g><g><g><path d="M791 124 871 124 871 204 791 204Z" fill="#C925D1" fill-rule="evenodd"/><path d="M843.086 178.85C839.748 181.549 832.745 182.975 826.044 182.975 819.342 182.975 812.337 181.548 809 178.849L809 184.285 809.001 184.285C809.001 186.995 816 190.016 826.044 190.016 836.08 190.016 843.075 186.999 843.086 184.29L843.086 178.85ZM843.087 168.522 845.087 168.511 845.087 168.522C845.087 169.73 844.482 170.858 843.304 171.891 844.732 173.147 845.087 174.38 845.087 175.258 845.087 175.264 845.086 175.269 845.086 175.275L845.086 184.285 845.087 184.285C845.087 189.295 835.275 192 826.044 192 816.835 192 807.05 189.307 807.003 184.319 807.003 184.314 807 184.309 807 184.304L807 175.255C807 175.253 807.002 175.25 807.002 175.247 807.005 174.369 807.361 173.141 808.787 171.888 807.37 170.636 807.01 169.415 807.001 168.544L807.002 168.544C807.002 168.54 807 168.537 807 168.533L807 159.484C807 159.481 807.002 159.478 807.002 159.475 807.005 158.597 807.362 157.369 808.788 156.117 807.37 154.865 807.01 153.643 807.001 152.773L807.002 152.773C807.002 152.769 807 152.765 807 152.761L807 143.712C807 143.71 807.002 143.707 807.002 143.704 807.019 138.7 816.82 136 826.044 136 831.255 136 836.261 136.828 839.778 138.272L839.013 140.105C835.73 138.757 831.003 137.984 826.044 137.984 816 137.984 809.001 141.005 809.001 143.717 809.001 146.429 816 149.45 826.044 149.45 826.315 149.453 826.58 149.45 826.848 149.44L826.932 151.422C826.636 151.434 826.34 151.434 826.044 151.434 819.342 151.434 812.337 150.007 809 147.308L809 152.74 809.001 152.74 809.001 152.763C809.011 153.803 810.078 154.712 810.972 155.289 813.662 157.004 818.482 158.175 823.857 158.418L823.766 160.4C818.321 160.153 813.553 159.023 810.484 157.292 809.728 157.857 809.001 158.622 809.001 159.489 809.001 162.2 816 165.221 826.044 165.221 827.029 165.221 828.007 165.189 828.952 165.123L829.091 167.102C828.101 167.17 827.075 167.205 826.044 167.205 819.342 167.205 812.337 165.778 809 163.079L809 168.511 809.001 168.511C809.011 169.575 810.078 170.482 810.972 171.06 814.048 173.023 819.824 174.245 826.044 174.245L826.484 174.245 826.484 176.229 826.044 176.229C819.725 176.229 813.982 175.055 810.47 173.073 809.718 173.637 809.001 174.398 809.001 175.258 809.001 177.969 816 180.992 826.044 180.992 836.08 180.992 843.075 177.975 843.086 175.265L843.086 175.255 843.086 175.254C843.084 174.392 842.364 173.631 841.61 173.067 841.122 173.344 840.599 173.61 840.004 173.855L839.238 172.022C839.964 171.724 840.594 171.402 841.111 171.062 842.013 170.474 843.087 169.555 843.087 168.522L843.087 168.522ZM851.653 154.017 846.049 154.017C845.718 154.017 845.407 153.854 845.222 153.582 845.035 153.311 844.997 152.964 845.119 152.66L848.528 144.138 835.619 144.138 829.619 156.04 836.001 156.04C836.32 156.04 836.62 156.192 836.809 156.447 836.996 156.703 837.051 157.031 836.954 157.333L831.258 175.089 851.653 154.017ZM854.722 153.712 829.723 179.54C829.528 179.74 829.266 179.844 829.001 179.844 828.825 179.844 828.648 179.799 828.49 179.705 828.09 179.469 827.907 178.992 828.048 178.552L834.634 158.024 828.001 158.024C827.654 158.024 827.333 157.846 827.15 157.554 826.968 157.261 826.951 156.896 827.107 156.589L834.107 142.703C834.276 142.367 834.622 142.154 835.001 142.154L850.001 142.154C850.332 142.154 850.643 142.318 850.828 142.589 851.015 142.861 851.053 143.207 850.931 143.512L847.522 152.033 854 152.033C854.4 152.033 854.763 152.271 854.92 152.636 855.077 153.002 854.999 153.426 854.722 153.712L854.722 153.712ZM810.455 184.674C811.872 185.473 813.656 186.144 815.757 186.668L816.245 184.744C814.346 184.271 812.686 183.65 811.443 182.949L810.455 184.674ZM815.757 170.798 816.245 168.875C814.346 168.401 812.686 167.78 811.443 167.08L810.455 168.805C811.872 169.603 813.655 170.275 815.757 170.798L815.757 170.798ZM810.455 152.936 811.443 151.211C812.684 151.911 814.345 152.531 816.245 153.006L815.757 154.929C813.653 154.404 811.87 153.733 810.455 152.936L810.455 152.936Z" fill="#FFFFFF" fill-rule="evenodd"/></g></g></g></g></svg>