<svg width="81" height="81" xmlns="http://www.w3.org/2000/svg" xmlns:xlink="http://www.w3.org/1999/xlink" overflow="hidden"><g transform="translate(-313 -124)"><g><g><g><path d="M314 124 394 124 394 204 314 204Z" fill="#ED7100" fill-rule="evenodd"/><path d="M364.487 169.96C364.487 168.303 363.143 166.954 361.491 166.954 359.839 166.954 358.495 168.303 358.495 169.96 358.495 171.618 359.839 172.967 361.491 172.967 363.143 172.967 364.487 171.618 364.487 169.96M353.501 159.939C355.153 159.939 356.497 158.59 356.497 156.932 356.497 155.274 355.153 153.925 353.501 153.925 351.849 153.925 350.505 155.274 350.505 156.932 350.505 158.59 351.849 159.939 353.501 159.939M344.513 170.963C346.165 170.963 347.509 169.614 347.509 167.956 347.509 166.298 346.165 164.95 344.513 164.95 342.861 164.95 341.517 166.298 341.517 167.956 341.517 169.614 342.861 170.963 344.513 170.963M366.484 169.96C366.484 172.381 364.765 174.404 362.489 174.87L362.489 180.985C362.489 181.538 362.043 181.987 361.491 181.987L354.5 181.987 354.5 188 352.503 188 352.503 176.976 344.513 176.976C343.961 176.976 343.514 176.527 343.514 175.974L343.514 172.866C341.238 172.4 339.52 170.376 339.52 167.956 339.52 165.193 341.76 162.945 344.513 162.945 347.267 162.945 349.507 165.193 349.507 167.956 349.507 170.376 347.788 172.4 345.512 172.866L345.512 174.971 352.503 174.971 352.503 161.842C350.227 161.376 348.508 159.352 348.508 156.932 348.508 154.169 350.748 151.921 353.501 151.921 356.255 151.921 358.495 154.169 358.495 156.932 358.495 159.352 356.776 161.376 354.5 161.842L354.5 179.982 360.492 179.982 360.492 174.87C358.216 174.404 356.497 172.381 356.497 169.96 356.497 167.197 358.737 164.95 361.491 164.95 364.244 164.95 366.484 167.197 366.484 169.96M381 165.012C381 172.355 375.544 174.971 370.439 174.971L370.439 172.967C373.013 172.967 379.003 172.191 379.003 165.012 379.003 159.64 374.932 157.693 371.518 157.005 371.072 156.916 370.743 156.536 370.717 156.082 370.469 151.875 368.026 150.382 366.008 150.382 364.644 150.382 363.364 151.034 362.498 152.173 362.278 152.464 361.914 152.613 361.555 152.556 361.195 152.502 360.893 152.255 360.767 151.911 359.985 149.779 358.862 147.993 357.429 146.602 353.747 143.02 348.711 142.047 343.955 144.005 340.006 145.618 336.914 150.284 336.914 154.626 336.914 155.106 336.943 155.588 337.002 156.059 337.064 156.563 336.742 157.034 336.251 157.156 333.915 157.736 329.997 159.518 329.997 164.936 329.997 165.142 330.006 165.338 330.016 165.524 330.25 169.696 333.933 172.967 338.402 172.967L339.52 172.967 339.52 174.971 338.402 174.971C332.875 174.971 328.315 170.87 328.022 165.633 328.011 165.411 328 165.179 328 164.936 328 158.64 332.351 156.288 334.941 155.448 334.924 155.174 334.917 154.9 334.917 154.626 334.917 149.442 338.478 144.078 343.201 142.15 348.71 139.884 354.549 141.008 358.818 145.162 360.132 146.436 361.214 147.986 362.048 149.784 363.173 148.877 364.555 148.377 366.008 148.377 368.967 148.377 372.077 150.496 372.643 155.203 378.04 156.524 381 159.985 381 165.012" fill="#FFFFFF" fill-rule="evenodd"/></g></g></g></g></svg>